<mxfile host="app.diagrams.net" modified="2022-03-12T08:50:25.403Z" agent="5.0 (Windows NT 10.0; Win64; x64) AppleWebKit/537.36 (KHTML, like Gecko) Chrome/99.0.4844.51 Safari/537.36" etag="Bzj-so38fAAlGWW0GX8f" version="17.1.2" type="github">
  <diagram id="R2lEEEUBdFMjLlhIrx00" name="Page-1">
    <mxGraphModel dx="1232" dy="743" grid="1" gridSize="10" guides="1" tooltips="1" connect="1" arrows="0" fold="1" page="0" pageScale="1" pageWidth="850" pageHeight="1100" background="#FFFAF0" math="0" shadow="0" extFonts="Permanent Marker^https://fonts.googleapis.com/css?family=Permanent+Marker">
      <root>
        <mxCell id="0" />
        <mxCell id="1" parent="0" />
        <mxCell id="aoao5tm1Mk-RfkPvf58G-1" value="Anggota" style="rounded=0;whiteSpace=wrap;html=1;fillColor=#f8cecc;strokeColor=#b85450;" vertex="1" parent="1">
          <mxGeometry x="40" y="350" width="120" height="60" as="geometry" />
        </mxCell>
        <mxCell id="aoao5tm1Mk-RfkPvf58G-3" value="" style="endArrow=none;html=1;rounded=0;entryX=0.25;entryY=0;entryDx=0;entryDy=0;exitX=0.5;exitY=0;exitDx=0;exitDy=0;" edge="1" parent="1" source="aoao5tm1Mk-RfkPvf58G-5" target="aoao5tm1Mk-RfkPvf58G-1">
          <mxGeometry width="50" height="50" relative="1" as="geometry">
            <mxPoint x="10" y="460" as="sourcePoint" />
            <mxPoint x="60" y="410" as="targetPoint" />
          </mxGeometry>
        </mxCell>
        <mxCell id="aoao5tm1Mk-RfkPvf58G-5" value="id_anggota" style="ellipse;whiteSpace=wrap;html=1;fillColor=#fff2cc;strokeColor=#d6b656;fontStyle=4" vertex="1" parent="1">
          <mxGeometry x="-50" y="300" width="100" height="40" as="geometry" />
        </mxCell>
        <mxCell id="aoao5tm1Mk-RfkPvf58G-6" value="" style="endArrow=none;html=1;rounded=0;entryX=0.5;entryY=0;entryDx=0;entryDy=0;exitX=0.5;exitY=0;exitDx=0;exitDy=0;" edge="1" parent="1" source="aoao5tm1Mk-RfkPvf58G-7" target="aoao5tm1Mk-RfkPvf58G-1">
          <mxGeometry width="50" height="50" relative="1" as="geometry">
            <mxPoint x="120" y="460" as="sourcePoint" />
            <mxPoint x="83.16000000000008" y="409.82000000000005" as="targetPoint" />
          </mxGeometry>
        </mxCell>
        <mxCell id="aoao5tm1Mk-RfkPvf58G-7" value="nama_anggota" style="ellipse;whiteSpace=wrap;html=1;fillColor=#fff2cc;strokeColor=#d6b656;" vertex="1" parent="1">
          <mxGeometry x="60" y="280" width="100" height="40" as="geometry" />
        </mxCell>
        <mxCell id="aoao5tm1Mk-RfkPvf58G-8" value="" style="endArrow=none;html=1;rounded=0;entryX=0.75;entryY=0;entryDx=0;entryDy=0;exitX=0.5;exitY=0;exitDx=0;exitDy=0;" edge="1" parent="1" source="aoao5tm1Mk-RfkPvf58G-9" target="aoao5tm1Mk-RfkPvf58G-1">
          <mxGeometry width="50" height="50" relative="1" as="geometry">
            <mxPoint x="230" y="460" as="sourcePoint" />
            <mxPoint x="205" y="410" as="targetPoint" />
          </mxGeometry>
        </mxCell>
        <mxCell id="aoao5tm1Mk-RfkPvf58G-9" value="alamat_anggota" style="ellipse;whiteSpace=wrap;html=1;fillColor=#fff2cc;strokeColor=#d6b656;" vertex="1" parent="1">
          <mxGeometry x="170" y="290" width="110" height="40" as="geometry" />
        </mxCell>
        <mxCell id="aoao5tm1Mk-RfkPvf58G-10" value="melakukan" style="rhombus;whiteSpace=wrap;html=1;fillColor=#ffe6cc;strokeColor=#d79b00;" vertex="1" parent="1">
          <mxGeometry x="200" y="360" width="130" height="40" as="geometry" />
        </mxCell>
        <mxCell id="aoao5tm1Mk-RfkPvf58G-12" value="" style="endArrow=none;html=1;rounded=0;entryX=0;entryY=0.5;entryDx=0;entryDy=0;" edge="1" parent="1" target="aoao5tm1Mk-RfkPvf58G-10">
          <mxGeometry width="50" height="50" relative="1" as="geometry">
            <mxPoint x="160" y="379.5" as="sourcePoint" />
            <mxPoint x="210" y="379.5" as="targetPoint" />
          </mxGeometry>
        </mxCell>
        <mxCell id="aoao5tm1Mk-RfkPvf58G-13" value="" style="endArrow=none;html=1;rounded=0;exitX=1;exitY=0.5;exitDx=0;exitDy=0;entryX=0;entryY=0.5;entryDx=0;entryDy=0;" edge="1" parent="1" source="aoao5tm1Mk-RfkPvf58G-10" target="aoao5tm1Mk-RfkPvf58G-14">
          <mxGeometry width="50" height="50" relative="1" as="geometry">
            <mxPoint x="340" y="370" as="sourcePoint" />
            <mxPoint x="390" y="370" as="targetPoint" />
          </mxGeometry>
        </mxCell>
        <mxCell id="aoao5tm1Mk-RfkPvf58G-14" value="Kegiatan" style="rounded=0;whiteSpace=wrap;html=1;fillColor=#f8cecc;strokeColor=#b85450;" vertex="1" parent="1">
          <mxGeometry x="380" y="350" width="120" height="60" as="geometry" />
        </mxCell>
        <mxCell id="aoao5tm1Mk-RfkPvf58G-15" value="id_kegiatan" style="ellipse;whiteSpace=wrap;html=1;fillColor=#fff2cc;strokeColor=#d6b656;fontStyle=4" vertex="1" parent="1">
          <mxGeometry x="290" y="430" width="100" height="40" as="geometry" />
        </mxCell>
        <mxCell id="aoao5tm1Mk-RfkPvf58G-16" value="nama_kegiatan" style="ellipse;whiteSpace=wrap;html=1;fillColor=#fff2cc;strokeColor=#d6b656;" vertex="1" parent="1">
          <mxGeometry x="400" y="440" width="100" height="40" as="geometry" />
        </mxCell>
        <mxCell id="aoao5tm1Mk-RfkPvf58G-17" value="waktu_kegiatan" style="ellipse;whiteSpace=wrap;html=1;fillColor=#fff2cc;strokeColor=#d6b656;" vertex="1" parent="1">
          <mxGeometry x="530" y="430" width="110" height="40" as="geometry" />
        </mxCell>
        <mxCell id="aoao5tm1Mk-RfkPvf58G-18" value="tempat_kegiatan" style="ellipse;whiteSpace=wrap;html=1;fillColor=#fff2cc;strokeColor=#d6b656;" vertex="1" parent="1">
          <mxGeometry x="540" y="360" width="110" height="40" as="geometry" />
        </mxCell>
        <mxCell id="aoao5tm1Mk-RfkPvf58G-25" value="" style="endArrow=none;html=1;rounded=0;exitX=0.5;exitY=0;exitDx=0;exitDy=0;entryX=0.5;entryY=1;entryDx=0;entryDy=0;" edge="1" parent="1" source="aoao5tm1Mk-RfkPvf58G-15" target="aoao5tm1Mk-RfkPvf58G-14">
          <mxGeometry width="50" height="50" relative="1" as="geometry">
            <mxPoint x="300" y="430" as="sourcePoint" />
            <mxPoint x="350" y="380" as="targetPoint" />
          </mxGeometry>
        </mxCell>
        <mxCell id="aoao5tm1Mk-RfkPvf58G-26" value="" style="endArrow=none;html=1;rounded=0;exitX=0.44;exitY=0.005;exitDx=0;exitDy=0;entryX=0.587;entryY=1.023;entryDx=0;entryDy=0;entryPerimeter=0;exitPerimeter=0;" edge="1" parent="1" source="aoao5tm1Mk-RfkPvf58G-16" target="aoao5tm1Mk-RfkPvf58G-14">
          <mxGeometry width="50" height="50" relative="1" as="geometry">
            <mxPoint x="445.58000000000004" y="439.4" as="sourcePoint" />
            <mxPoint x="494.41999999999996" y="420" as="targetPoint" />
          </mxGeometry>
        </mxCell>
        <mxCell id="aoao5tm1Mk-RfkPvf58G-28" value="" style="endArrow=none;html=1;rounded=0;exitX=0.345;exitY=0.045;exitDx=0;exitDy=0;entryX=0.75;entryY=1;entryDx=0;entryDy=0;exitPerimeter=0;" edge="1" parent="1" source="aoao5tm1Mk-RfkPvf58G-17" target="aoao5tm1Mk-RfkPvf58G-14">
          <mxGeometry width="50" height="50" relative="1" as="geometry">
            <mxPoint x="500.0000000000001" y="455.22" as="sourcePoint" />
            <mxPoint x="488.0400000000001" y="410" as="targetPoint" />
          </mxGeometry>
        </mxCell>
        <mxCell id="aoao5tm1Mk-RfkPvf58G-29" value="" style="endArrow=none;html=1;rounded=0;exitX=0;exitY=0.5;exitDx=0;exitDy=0;entryX=1;entryY=0.5;entryDx=0;entryDy=0;" edge="1" parent="1" source="aoao5tm1Mk-RfkPvf58G-18" target="aoao5tm1Mk-RfkPvf58G-14">
          <mxGeometry width="50" height="50" relative="1" as="geometry">
            <mxPoint x="520.0000000000001" y="415.22" as="sourcePoint" />
            <mxPoint x="508.0400000000001" y="370" as="targetPoint" />
          </mxGeometry>
        </mxCell>
        <mxCell id="aoao5tm1Mk-RfkPvf58G-30" value="mendapatkan" style="rhombus;whiteSpace=wrap;html=1;fillColor=#ffe6cc;strokeColor=#d79b00;" vertex="1" parent="1">
          <mxGeometry x="35" y="440" width="130" height="40" as="geometry" />
        </mxCell>
        <mxCell id="aoao5tm1Mk-RfkPvf58G-40" value="" style="endArrow=none;html=1;rounded=0;exitX=0.5;exitY=1;exitDx=0;exitDy=0;entryX=0.5;entryY=0;entryDx=0;entryDy=0;" edge="1" parent="1" source="aoao5tm1Mk-RfkPvf58G-1" target="aoao5tm1Mk-RfkPvf58G-30">
          <mxGeometry width="50" height="50" relative="1" as="geometry">
            <mxPoint x="90" y="429" as="sourcePoint" />
            <mxPoint x="140" y="429" as="targetPoint" />
          </mxGeometry>
        </mxCell>
        <mxCell id="aoao5tm1Mk-RfkPvf58G-41" value="Pendapatan" style="rounded=0;whiteSpace=wrap;html=1;fillColor=#f8cecc;strokeColor=#b85450;" vertex="1" parent="1">
          <mxGeometry x="40" y="500" width="120" height="60" as="geometry" />
        </mxCell>
        <mxCell id="aoao5tm1Mk-RfkPvf58G-42" value="" style="endArrow=none;html=1;rounded=0;exitX=0.5;exitY=1;exitDx=0;exitDy=0;entryX=0.5;entryY=0;entryDx=0;entryDy=0;" edge="1" parent="1" source="aoao5tm1Mk-RfkPvf58G-30" target="aoao5tm1Mk-RfkPvf58G-41">
          <mxGeometry width="50" height="50" relative="1" as="geometry">
            <mxPoint x="85" y="490" as="sourcePoint" />
            <mxPoint x="135" y="490" as="targetPoint" />
          </mxGeometry>
        </mxCell>
        <mxCell id="aoao5tm1Mk-RfkPvf58G-43" value="id_pendapatan" style="ellipse;whiteSpace=wrap;html=1;fillColor=#fff2cc;strokeColor=#d6b656;fontStyle=4" vertex="1" parent="1">
          <mxGeometry x="-65" y="600" width="100" height="40" as="geometry" />
        </mxCell>
        <mxCell id="aoao5tm1Mk-RfkPvf58G-44" value="" style="endArrow=none;html=1;rounded=0;exitX=0.5;exitY=0;exitDx=0;exitDy=0;entryX=0.5;entryY=1;entryDx=0;entryDy=0;" edge="1" parent="1" source="aoao5tm1Mk-RfkPvf58G-43" target="aoao5tm1Mk-RfkPvf58G-41">
          <mxGeometry width="50" height="50" relative="1" as="geometry">
            <mxPoint x="-50" y="579.4" as="sourcePoint" />
            <mxPoint x="80" y="580" as="targetPoint" />
          </mxGeometry>
        </mxCell>
        <mxCell id="aoao5tm1Mk-RfkPvf58G-45" value="waktu_pendapatan" style="ellipse;whiteSpace=wrap;html=1;fillColor=#fff2cc;strokeColor=#d6b656;" vertex="1" parent="1">
          <mxGeometry x="180" y="600" width="110" height="40" as="geometry" />
        </mxCell>
        <mxCell id="aoao5tm1Mk-RfkPvf58G-46" value="" style="endArrow=none;html=1;rounded=0;exitX=0.5;exitY=0;exitDx=0;exitDy=0;entryX=0.5;entryY=1;entryDx=0;entryDy=0;" edge="1" parent="1" source="aoao5tm1Mk-RfkPvf58G-45" target="aoao5tm1Mk-RfkPvf58G-41">
          <mxGeometry width="50" height="50" relative="1" as="geometry">
            <mxPoint x="70" y="579.4" as="sourcePoint" />
            <mxPoint x="198.83999999999992" y="560" as="targetPoint" />
          </mxGeometry>
        </mxCell>
        <mxCell id="aoao5tm1Mk-RfkPvf58G-47" value="nominal_pendapatan" style="ellipse;whiteSpace=wrap;html=1;fillColor=#fff2cc;strokeColor=#d6b656;" vertex="1" parent="1">
          <mxGeometry x="210" y="540" width="120" height="40" as="geometry" />
        </mxCell>
        <mxCell id="aoao5tm1Mk-RfkPvf58G-48" value="" style="endArrow=none;html=1;rounded=0;entryX=1;entryY=1;entryDx=0;entryDy=0;exitX=0;exitY=0.5;exitDx=0;exitDy=0;" edge="1" parent="1" source="aoao5tm1Mk-RfkPvf58G-47" target="aoao5tm1Mk-RfkPvf58G-41">
          <mxGeometry width="50" height="50" relative="1" as="geometry">
            <mxPoint x="260" y="520" as="sourcePoint" />
            <mxPoint x="160" y="540" as="targetPoint" />
          </mxGeometry>
        </mxCell>
        <mxCell id="aoao5tm1Mk-RfkPvf58G-49" value="id_jenis_pendapatan" style="ellipse;whiteSpace=wrap;html=1;fillColor=#fff2cc;strokeColor=#d6b656;" vertex="1" parent="1">
          <mxGeometry x="-130" y="540" width="120" height="40" as="geometry" />
        </mxCell>
        <mxCell id="aoao5tm1Mk-RfkPvf58G-50" value="" style="endArrow=none;html=1;rounded=0;exitX=1;exitY=0.5;exitDx=0;exitDy=0;entryX=0;entryY=1;entryDx=0;entryDy=0;" edge="1" parent="1" source="aoao5tm1Mk-RfkPvf58G-49" target="aoao5tm1Mk-RfkPvf58G-41">
          <mxGeometry width="50" height="50" relative="1" as="geometry">
            <mxPoint x="-40" y="589.4" as="sourcePoint" />
            <mxPoint x="88.83999999999992" y="570" as="targetPoint" />
          </mxGeometry>
        </mxCell>
        <mxCell id="aoao5tm1Mk-RfkPvf58G-51" value="Pengeluaran" style="rounded=0;whiteSpace=wrap;html=1;fillColor=#f8cecc;strokeColor=#b85450;" vertex="1" parent="1">
          <mxGeometry x="-350" y="340" width="120" height="60" as="geometry" />
        </mxCell>
        <mxCell id="aoao5tm1Mk-RfkPvf58G-52" value="id_pengeluaran" style="ellipse;whiteSpace=wrap;html=1;fillColor=#fff2cc;strokeColor=#d6b656;fontStyle=4" vertex="1" parent="1">
          <mxGeometry x="-450" y="260" width="100" height="40" as="geometry" />
        </mxCell>
        <mxCell id="aoao5tm1Mk-RfkPvf58G-53" value="waktu_pengeluaran" style="ellipse;whiteSpace=wrap;html=1;fillColor=#fff2cc;strokeColor=#d6b656;" vertex="1" parent="1">
          <mxGeometry x="-330" y="260" width="120" height="40" as="geometry" />
        </mxCell>
        <mxCell id="aoao5tm1Mk-RfkPvf58G-54" value="nominal_pengeluaran" style="ellipse;whiteSpace=wrap;html=1;fillColor=#fff2cc;strokeColor=#d6b656;" vertex="1" parent="1">
          <mxGeometry x="-190" y="280" width="120" height="40" as="geometry" />
        </mxCell>
        <mxCell id="aoao5tm1Mk-RfkPvf58G-61" value="jenis_pengeluaran" style="ellipse;whiteSpace=wrap;html=1;fillColor=#fff2cc;strokeColor=#d6b656;" vertex="1" parent="1">
          <mxGeometry x="-530" y="310" width="120" height="40" as="geometry" />
        </mxCell>
        <mxCell id="aoao5tm1Mk-RfkPvf58G-63" value="Jenis Pendapatan&amp;nbsp;" style="rounded=0;whiteSpace=wrap;html=1;fillColor=#f8cecc;strokeColor=#b85450;" vertex="1" parent="1">
          <mxGeometry x="40" y="690" width="120" height="60" as="geometry" />
        </mxCell>
        <mxCell id="aoao5tm1Mk-RfkPvf58G-65" value="id_jenis_pendapatan" style="ellipse;whiteSpace=wrap;html=1;fillColor=#fff2cc;strokeColor=#d6b656;fontStyle=4" vertex="1" parent="1">
          <mxGeometry x="-90" y="770" width="130" height="40" as="geometry" />
        </mxCell>
        <mxCell id="aoao5tm1Mk-RfkPvf58G-66" value="nama_pendapatan" style="ellipse;whiteSpace=wrap;html=1;fillColor=#fff2cc;strokeColor=#d6b656;" vertex="1" parent="1">
          <mxGeometry x="155" y="770" width="120" height="40" as="geometry" />
        </mxCell>
        <mxCell id="aoao5tm1Mk-RfkPvf58G-67" value="Jenis Pengeluaran" style="rounded=0;whiteSpace=wrap;html=1;fillColor=#f8cecc;strokeColor=#b85450;" vertex="1" parent="1">
          <mxGeometry x="-350" y="500" width="120" height="60" as="geometry" />
        </mxCell>
        <mxCell id="aoao5tm1Mk-RfkPvf58G-68" value="id_jenis_pengeluaran" style="ellipse;whiteSpace=wrap;html=1;fillColor=#fff2cc;strokeColor=#d6b656;fontStyle=4" vertex="1" parent="1">
          <mxGeometry x="-443" y="580" width="130" height="40" as="geometry" />
        </mxCell>
        <mxCell id="aoao5tm1Mk-RfkPvf58G-69" value="nama_pendapatan" style="ellipse;whiteSpace=wrap;html=1;fillColor=#fff2cc;strokeColor=#d6b656;" vertex="1" parent="1">
          <mxGeometry x="-260" y="580" width="120" height="40" as="geometry" />
        </mxCell>
        <mxCell id="aoao5tm1Mk-RfkPvf58G-70" value="Laporan" style="rounded=0;whiteSpace=wrap;html=1;fillColor=#f8cecc;strokeColor=#b85450;" vertex="1" parent="1">
          <mxGeometry x="380" y="200" width="120" height="60" as="geometry" />
        </mxCell>
        <mxCell id="aoao5tm1Mk-RfkPvf58G-71" value="id_laporan" style="ellipse;whiteSpace=wrap;html=1;fillColor=#fff2cc;strokeColor=#d6b656;fontStyle=4" vertex="1" parent="1">
          <mxGeometry x="210" y="150" width="130" height="40" as="geometry" />
        </mxCell>
        <mxCell id="aoao5tm1Mk-RfkPvf58G-72" value="nama_laporan" style="ellipse;whiteSpace=wrap;html=1;fillColor=#fff2cc;strokeColor=#d6b656;" vertex="1" parent="1">
          <mxGeometry x="540" y="150" width="120" height="40" as="geometry" />
        </mxCell>
        <mxCell id="aoao5tm1Mk-RfkPvf58G-73" value="id_kegiatan" style="ellipse;whiteSpace=wrap;html=1;fillColor=#fff2cc;strokeColor=#d6b656;fontStyle=0" vertex="1" parent="1">
          <mxGeometry x="380" y="140" width="120" height="40" as="geometry" />
        </mxCell>
        <mxCell id="aoao5tm1Mk-RfkPvf58G-76" value="memiliki" style="rhombus;whiteSpace=wrap;html=1;fillColor=#ffe6cc;strokeColor=#d79b00;" vertex="1" parent="1">
          <mxGeometry x="375" y="290" width="130" height="40" as="geometry" />
        </mxCell>
        <mxCell id="aoao5tm1Mk-RfkPvf58G-77" value="mengeluarkan" style="rhombus;whiteSpace=wrap;html=1;fillColor=#ffe6cc;strokeColor=#d79b00;" vertex="1" parent="1">
          <mxGeometry x="-175" y="350" width="130" height="40" as="geometry" />
        </mxCell>
        <mxCell id="aoao5tm1Mk-RfkPvf58G-79" value="memiliki" style="rhombus;whiteSpace=wrap;html=1;fillColor=#ffe6cc;strokeColor=#d79b00;" vertex="1" parent="1">
          <mxGeometry x="35" y="630" width="130" height="40" as="geometry" />
        </mxCell>
        <mxCell id="aoao5tm1Mk-RfkPvf58G-80" value="" style="endArrow=none;html=1;rounded=0;entryX=0.5;entryY=0;entryDx=0;entryDy=0;exitX=0.5;exitY=1;exitDx=0;exitDy=0;" edge="1" parent="1" source="aoao5tm1Mk-RfkPvf58G-76" target="aoao5tm1Mk-RfkPvf58G-14">
          <mxGeometry width="50" height="50" relative="1" as="geometry">
            <mxPoint x="450" y="285" as="sourcePoint" />
            <mxPoint x="440" y="355" as="targetPoint" />
          </mxGeometry>
        </mxCell>
        <mxCell id="aoao5tm1Mk-RfkPvf58G-81" value="" style="endArrow=none;html=1;rounded=0;entryX=0.5;entryY=0;entryDx=0;entryDy=0;exitX=0.5;exitY=1;exitDx=0;exitDy=0;" edge="1" parent="1" source="aoao5tm1Mk-RfkPvf58G-70" target="aoao5tm1Mk-RfkPvf58G-76">
          <mxGeometry width="50" height="50" relative="1" as="geometry">
            <mxPoint x="435" y="250" as="sourcePoint" />
            <mxPoint x="425" y="320" as="targetPoint" />
          </mxGeometry>
        </mxCell>
        <mxCell id="aoao5tm1Mk-RfkPvf58G-82" value="" style="endArrow=none;html=1;rounded=0;entryX=0;entryY=0;entryDx=0;entryDy=0;exitX=1;exitY=0.5;exitDx=0;exitDy=0;" edge="1" parent="1" source="aoao5tm1Mk-RfkPvf58G-71" target="aoao5tm1Mk-RfkPvf58G-70">
          <mxGeometry width="50" height="50" relative="1" as="geometry">
            <mxPoint x="340" y="195" as="sourcePoint" />
            <mxPoint x="330" y="265" as="targetPoint" />
          </mxGeometry>
        </mxCell>
        <mxCell id="aoao5tm1Mk-RfkPvf58G-83" value="" style="endArrow=none;html=1;rounded=0;entryX=1;entryY=0;entryDx=0;entryDy=0;exitX=0;exitY=0.5;exitDx=0;exitDy=0;" edge="1" parent="1" source="aoao5tm1Mk-RfkPvf58G-72" target="aoao5tm1Mk-RfkPvf58G-70">
          <mxGeometry width="50" height="50" relative="1" as="geometry">
            <mxPoint x="550" y="230" as="sourcePoint" />
            <mxPoint x="540" y="300" as="targetPoint" />
          </mxGeometry>
        </mxCell>
        <mxCell id="aoao5tm1Mk-RfkPvf58G-84" value="" style="endArrow=none;html=1;rounded=0;entryX=0.5;entryY=0;entryDx=0;entryDy=0;exitX=0.5;exitY=1;exitDx=0;exitDy=0;" edge="1" parent="1" source="aoao5tm1Mk-RfkPvf58G-73" target="aoao5tm1Mk-RfkPvf58G-70">
          <mxGeometry width="50" height="50" relative="1" as="geometry">
            <mxPoint x="500" y="180" as="sourcePoint" />
            <mxPoint x="500" y="240" as="targetPoint" />
          </mxGeometry>
        </mxCell>
        <mxCell id="aoao5tm1Mk-RfkPvf58G-87" value="" style="endArrow=none;html=1;rounded=0;entryX=0.5;entryY=1;entryDx=0;entryDy=0;exitX=0.25;exitY=0;exitDx=0;exitDy=0;" edge="1" parent="1" source="aoao5tm1Mk-RfkPvf58G-51" target="aoao5tm1Mk-RfkPvf58G-52">
          <mxGeometry width="50" height="50" relative="1" as="geometry">
            <mxPoint x="-340" y="400" as="sourcePoint" />
            <mxPoint x="-350" y="470" as="targetPoint" />
          </mxGeometry>
        </mxCell>
        <mxCell id="aoao5tm1Mk-RfkPvf58G-88" value="" style="endArrow=none;html=1;rounded=0;entryX=1;entryY=0.5;entryDx=0;entryDy=0;exitX=0;exitY=0;exitDx=0;exitDy=0;" edge="1" parent="1" source="aoao5tm1Mk-RfkPvf58G-51" target="aoao5tm1Mk-RfkPvf58G-61">
          <mxGeometry width="50" height="50" relative="1" as="geometry">
            <mxPoint x="-370" y="310" as="sourcePoint" />
            <mxPoint x="-380" y="380" as="targetPoint" />
          </mxGeometry>
        </mxCell>
        <mxCell id="aoao5tm1Mk-RfkPvf58G-89" value="" style="endArrow=none;html=1;rounded=0;entryX=0.5;entryY=1;entryDx=0;entryDy=0;exitX=0.5;exitY=0;exitDx=0;exitDy=0;" edge="1" parent="1" source="aoao5tm1Mk-RfkPvf58G-51" target="aoao5tm1Mk-RfkPvf58G-53">
          <mxGeometry width="50" height="50" relative="1" as="geometry">
            <mxPoint x="-290" y="425" as="sourcePoint" />
            <mxPoint x="-300" y="495" as="targetPoint" />
          </mxGeometry>
        </mxCell>
        <mxCell id="aoao5tm1Mk-RfkPvf58G-90" value="" style="endArrow=none;html=1;rounded=0;entryX=1;entryY=0.5;entryDx=0;entryDy=0;exitX=0;exitY=0.5;exitDx=0;exitDy=0;" edge="1" parent="1" source="aoao5tm1Mk-RfkPvf58G-77" target="aoao5tm1Mk-RfkPvf58G-51">
          <mxGeometry width="50" height="50" relative="1" as="geometry">
            <mxPoint x="-195" y="330" as="sourcePoint" />
            <mxPoint x="-205" y="400" as="targetPoint" />
          </mxGeometry>
        </mxCell>
        <mxCell id="aoao5tm1Mk-RfkPvf58G-91" value="" style="endArrow=none;html=1;rounded=0;entryX=1;entryY=0.5;entryDx=0;entryDy=0;exitX=0;exitY=0.333;exitDx=0;exitDy=0;exitPerimeter=0;" edge="1" parent="1" source="aoao5tm1Mk-RfkPvf58G-1" target="aoao5tm1Mk-RfkPvf58G-77">
          <mxGeometry width="50" height="50" relative="1" as="geometry">
            <mxPoint y="345" as="sourcePoint" />
            <mxPoint x="-10" y="415" as="targetPoint" />
          </mxGeometry>
        </mxCell>
        <mxCell id="aoao5tm1Mk-RfkPvf58G-92" value="" style="endArrow=none;html=1;rounded=0;entryX=0;entryY=0.5;entryDx=0;entryDy=0;exitX=1;exitY=0;exitDx=0;exitDy=0;" edge="1" parent="1" source="aoao5tm1Mk-RfkPvf58G-51" target="aoao5tm1Mk-RfkPvf58G-54">
          <mxGeometry width="50" height="50" relative="1" as="geometry">
            <mxPoint x="-195" y="390" as="sourcePoint" />
            <mxPoint x="-205" y="460" as="targetPoint" />
          </mxGeometry>
        </mxCell>
        <mxCell id="aoao5tm1Mk-RfkPvf58G-93" value="" style="endArrow=none;html=1;rounded=0;entryX=0.5;entryY=0;entryDx=0;entryDy=0;exitX=0.5;exitY=1;exitDx=0;exitDy=0;" edge="1" parent="1" source="aoao5tm1Mk-RfkPvf58G-51" target="aoao5tm1Mk-RfkPvf58G-96">
          <mxGeometry width="50" height="50" relative="1" as="geometry">
            <mxPoint x="-295" y="400" as="sourcePoint" />
            <mxPoint x="-290" y="430" as="targetPoint" />
          </mxGeometry>
        </mxCell>
        <mxCell id="aoao5tm1Mk-RfkPvf58G-94" value="" style="endArrow=none;html=1;rounded=0;entryX=0.5;entryY=0;entryDx=0;entryDy=0;exitX=0.25;exitY=1;exitDx=0;exitDy=0;" edge="1" parent="1" source="aoao5tm1Mk-RfkPvf58G-67" target="aoao5tm1Mk-RfkPvf58G-68">
          <mxGeometry width="50" height="50" relative="1" as="geometry">
            <mxPoint x="-295" y="590" as="sourcePoint" />
            <mxPoint x="-305" y="660" as="targetPoint" />
          </mxGeometry>
        </mxCell>
        <mxCell id="aoao5tm1Mk-RfkPvf58G-95" value="" style="endArrow=none;html=1;rounded=0;entryX=0.5;entryY=0;entryDx=0;entryDy=0;exitX=0.75;exitY=1;exitDx=0;exitDy=0;" edge="1" parent="1" source="aoao5tm1Mk-RfkPvf58G-67" target="aoao5tm1Mk-RfkPvf58G-69">
          <mxGeometry width="50" height="50" relative="1" as="geometry">
            <mxPoint x="-220" y="630" as="sourcePoint" />
            <mxPoint x="-230" y="700" as="targetPoint" />
          </mxGeometry>
        </mxCell>
        <mxCell id="aoao5tm1Mk-RfkPvf58G-96" value="memiliki" style="rhombus;whiteSpace=wrap;html=1;fillColor=#ffe6cc;strokeColor=#d79b00;" vertex="1" parent="1">
          <mxGeometry x="-355" y="430" width="130" height="40" as="geometry" />
        </mxCell>
        <mxCell id="aoao5tm1Mk-RfkPvf58G-97" value="" style="endArrow=none;html=1;rounded=0;entryX=0.5;entryY=0;entryDx=0;entryDy=0;exitX=0.5;exitY=1;exitDx=0;exitDy=0;" edge="1" parent="1" source="aoao5tm1Mk-RfkPvf58G-96" target="aoao5tm1Mk-RfkPvf58G-67">
          <mxGeometry width="50" height="50" relative="1" as="geometry">
            <mxPoint x="-260" y="470" as="sourcePoint" />
            <mxPoint x="-304.9999999999998" y="500" as="targetPoint" />
          </mxGeometry>
        </mxCell>
        <mxCell id="aoao5tm1Mk-RfkPvf58G-98" value="" style="endArrow=none;html=1;rounded=0;entryX=0.5;entryY=0;entryDx=0;entryDy=0;exitX=0.5;exitY=1;exitDx=0;exitDy=0;" edge="1" parent="1" source="aoao5tm1Mk-RfkPvf58G-41" target="aoao5tm1Mk-RfkPvf58G-79">
          <mxGeometry width="50" height="50" relative="1" as="geometry">
            <mxPoint x="115" y="600" as="sourcePoint" />
            <mxPoint x="30.000000000000227" y="630" as="targetPoint" />
          </mxGeometry>
        </mxCell>
        <mxCell id="aoao5tm1Mk-RfkPvf58G-99" value="" style="endArrow=none;html=1;rounded=0;entryX=0;entryY=1;entryDx=0;entryDy=0;exitX=0.5;exitY=0;exitDx=0;exitDy=0;" edge="1" parent="1" source="aoao5tm1Mk-RfkPvf58G-65" target="aoao5tm1Mk-RfkPvf58G-63">
          <mxGeometry width="50" height="50" relative="1" as="geometry">
            <mxPoint x="15" y="780" as="sourcePoint" />
            <mxPoint x="50.00000000000023" y="740" as="targetPoint" />
          </mxGeometry>
        </mxCell>
        <mxCell id="aoao5tm1Mk-RfkPvf58G-100" value="" style="endArrow=none;html=1;rounded=0;entryX=0.5;entryY=0;entryDx=0;entryDy=0;exitX=1;exitY=1;exitDx=0;exitDy=0;" edge="1" parent="1" source="aoao5tm1Mk-RfkPvf58G-63" target="aoao5tm1Mk-RfkPvf58G-66">
          <mxGeometry width="50" height="50" relative="1" as="geometry">
            <mxPoint x="225" y="670" as="sourcePoint" />
            <mxPoint x="210.00000000000023" y="720" as="targetPoint" />
          </mxGeometry>
        </mxCell>
        <mxCell id="aoao5tm1Mk-RfkPvf58G-102" value="" style="endArrow=none;html=1;rounded=0;exitX=0.5;exitY=1;exitDx=0;exitDy=0;entryX=0.5;entryY=0;entryDx=0;entryDy=0;" edge="1" parent="1" source="aoao5tm1Mk-RfkPvf58G-79" target="aoao5tm1Mk-RfkPvf58G-63">
          <mxGeometry width="50" height="50" relative="1" as="geometry">
            <mxPoint x="190" y="670" as="sourcePoint" />
            <mxPoint x="210" y="720" as="targetPoint" />
          </mxGeometry>
        </mxCell>
      </root>
    </mxGraphModel>
  </diagram>
</mxfile>
